<svg width="185" height="185" viewBox="0 0 185 185" fill="none" xmlns="http://www.w3.org/2000/svg">
<path d="M92.6852 48.377C83.611 48.377 74.7405 51.0678 67.1956 56.1091C59.6507 61.1505 53.7701 68.316 50.2976 76.6994C46.825 85.0829 45.9164 94.3078 47.6867 103.208C49.457 112.108 53.8267 120.283 60.2431 126.699C66.6595 133.115 74.8346 137.485 83.7344 139.255C92.6343 141.026 101.859 140.117 110.243 136.645C118.626 133.172 125.792 127.291 130.833 119.746C135.874 112.202 138.565 103.331 138.565 94.257C138.567 88.2315 137.381 82.2647 135.076 76.6976C132.771 71.1305 129.391 66.0722 125.131 61.8115C120.87 57.5508 115.812 54.1714 110.244 51.8663C104.677 49.5611 98.7107 48.3754 92.6852 48.377Z" fill="#46CE7C"/>
<path opacity="0.3" d="M35.8436 97.1244L11.7474 121.221V121.267C11.5591 121.455 11.4097 121.679 11.3078 121.925C11.2059 122.171 11.1535 122.434 11.1535 122.701C11.1535 122.967 11.2059 123.231 11.3078 123.477C11.4097 123.723 11.5591 123.946 11.7474 124.134C11.9356 124.323 12.1592 124.472 12.4052 124.574C12.6512 124.676 12.9148 124.728 13.1811 124.728C13.4474 124.728 13.711 124.676 13.9571 124.574C14.2031 124.472 14.4266 124.323 14.6149 124.134L38.7111 99.9919C39.0914 99.6116 39.305 99.0959 39.305 98.5582C39.305 98.0204 39.0914 97.5046 38.7111 97.1244C38.3309 96.7441 37.8151 96.5305 37.2774 96.5305C36.7396 96.5305 36.2239 96.7441 35.8436 97.1244Z" fill="#46CE7C"/>
<path d="M0.924707 103.784L15.031 96.1067L13.5047 108.502L0.924707 103.784Z" fill="#46CE7C"/>
<path d="M135.05 40.4693C135.05 41.3474 135.31 42.2059 135.798 42.936C136.286 43.6662 136.979 44.2353 137.791 44.5713C138.602 44.9074 139.495 44.9953 140.356 44.824C141.217 44.6527 142.008 44.2298 142.629 43.6089C143.25 42.9879 143.673 42.1968 143.844 41.3355C144.016 40.4742 143.928 39.5815 143.592 38.7702C143.256 37.9589 142.687 37.2654 141.956 36.7776C141.226 36.2897 140.368 36.0293 139.49 36.0293C138.312 36.0293 137.183 36.4971 136.35 37.3297C135.517 38.1624 135.05 39.2917 135.05 40.4693Z" fill="#F6B756"/>
<path d="M57.8125 144.75C57.8125 145.207 57.9481 145.654 58.2022 146.035C58.4563 146.415 58.8175 146.711 59.24 146.886C59.6626 147.061 60.1276 147.107 60.5761 147.018C61.0247 146.929 61.4368 146.708 61.7602 146.385C62.0836 146.062 62.3038 145.649 62.3931 145.201C62.4823 144.752 62.4365 144.287 62.2615 143.865C62.0864 143.442 61.79 143.081 61.4098 142.827C61.0295 142.573 60.5824 142.437 60.125 142.437C59.5117 142.437 58.9235 142.681 58.4898 143.115C58.0561 143.548 57.8125 144.136 57.8125 144.75Z" fill="#F6B756"/>
<path d="M46.7124 45.418L56.7949 41.533L52.9099 51.6155L42.7812 55.5005L46.7124 45.418ZM46.7124 51.6155L42.6424 41.718L52.5399 45.788L56.6562 55.6855L46.7124 51.6155Z" fill="#F6B756"/>
<path d="M154.66 133.94L165.483 129.778L161.32 140.6L150.497 144.763L154.66 133.94ZM154.66 140.6L150.312 129.963L160.95 134.31L165.298 144.948L154.66 140.6Z" fill="#F6B756"/>
<path d="M144.683 96.2218L164.075 76.8756C164.35 76.6133 164.715 76.4669 165.095 76.4669C165.476 76.4669 165.841 76.6133 166.116 76.8756C166.363 77.1574 166.5 77.5192 166.5 77.8938C166.5 78.2684 166.363 78.6302 166.116 78.912L146.725 98.2582C146.45 98.5205 146.084 98.6669 145.704 98.6669C145.324 98.6669 144.958 98.5205 144.683 98.2582C144.436 97.9764 144.3 97.6146 144.3 97.24C144.3 96.8654 144.436 96.5036 144.683 96.2218Z" fill="#46CE7C"/>
<path opacity="0.1" d="M144.023 111.092L180.93 74.1847C181.279 73.8511 181.743 73.6649 182.225 73.6649C182.708 73.6649 183.172 73.8511 183.52 74.1847C183.834 74.5431 184.007 75.0033 184.007 75.4797C184.007 75.9561 183.834 76.4163 183.52 76.7747L146.613 113.682C146.264 114.016 145.8 114.202 145.318 114.202C144.835 114.202 144.371 114.016 144.023 113.682C143.709 113.324 143.536 112.864 143.536 112.387C143.536 111.911 143.709 111.451 144.023 111.092Z" fill="#46CE7C"/>
<path d="M120.377 83.8166L88.5104 116.885C88.1708 117.241 87.7042 117.449 87.2123 117.462C86.7205 117.475 86.2435 117.292 85.8857 116.955L85.8163 116.885L66.9116 97.2291C66.5564 96.8498 66.3587 96.3497 66.3587 95.83C66.3587 95.3104 66.5564 94.8102 66.9116 94.431L72.8432 88.3144C73.1847 87.9576 73.6533 87.7502 74.147 87.7372C74.6407 87.7242 75.1196 87.9067 75.4794 88.245L75.5488 88.3144L87.1113 100.363L111.682 74.925C112.021 74.569 112.488 74.3618 112.98 74.3488C113.471 74.3358 113.948 74.518 114.306 74.8556L114.376 74.925L120.319 81.0878C120.68 81.4664 120.882 81.9695 120.882 82.4927C120.882 83.0159 120.68 83.519 120.319 83.8975L120.377 83.8166Z" fill="white"/>
</svg>
