<svg width="125" height="40" viewBox="0 0 125 40" fill="none" xmlns="http://www.w3.org/2000/svg">
<path d="M24.8831 29.7261C24.8831 17.748 7.27806 21.5459 7.27806 14.7291C7.27806 11.9537 9.29428 10.6391 11.999 10.7365C14.9495 10.7851 16.769 12.538 16.9166 14.7778H24.4897C24.0471 8.64272 19.2278 5.08825 12.1957 5.08825C5.11431 5.08825 0.0983522 8.78879 0.0983522 14.9239C0.049176 27.2428 17.7526 22.8119 17.7526 30.1643C17.7526 32.5989 15.8347 34.3031 12.5891 34.3031C9.39263 34.3031 7.57312 32.5015 7.37641 29.7748H0C0.0983522 36.2021 5.60607 39.9026 12.7366 39.9026C20.5556 39.9026 24.8831 35.0822 24.8831 29.7261Z" fill="#4EB1A2"/>
<path d="M31.9337 31.1868C31.9337 37.3707 35.4252 39.5618 40.6379 39.5618H44.9654V33.8162H41.7689C39.6052 33.8162 38.8675 33.0371 38.8675 31.2355V18.1862H44.9654V12.5867H38.8675V5.916H31.9337V12.5867H28.6881V18.1862H31.9337V31.1868Z" fill="#4EB1A2"/>
<path d="M75.6363 12.5867H68.7024V27.4376C68.7024 31.7711 66.342 34.1083 62.6046 34.1083C58.9656 34.1083 56.5559 31.7711 56.5559 27.4376V12.5867H49.6713V28.4114C49.6713 35.8125 54.2447 39.9026 60.5884 39.9026C63.9815 39.9026 66.9813 38.4419 68.7024 36.1534V39.5618H75.6363V12.5867Z" fill="#4EB1A2"/>
<path d="M80.6588 25.9769C80.6588 34.4005 86.1665 40 93.1003 40C97.3786 40 100.428 38.0523 102.05 35.5691V39.5618H109.033V3.53012H102.05V16.336C100.182 13.804 96.7393 12.1485 93.1495 12.1485C86.1665 12.1485 80.6588 17.5532 80.6588 25.9769ZM102.1 26.0742C102.1 31.1868 98.6572 34.011 94.8706 34.011C91.1824 34.011 87.6909 31.0895 87.6909 25.9769C87.6909 20.8643 91.1824 18.1375 94.8706 18.1375C98.6572 18.1375 102.1 20.9616 102.1 26.0742Z" fill="#4EB1A2"/>
<path d="M115.757 39.5618H122.642V12.5867H115.757V39.5618ZM119.249 9.37309C121.659 9.37309 123.478 7.6202 123.478 5.38039C123.478 3.14059 121.659 1.3877 119.249 1.3877C116.79 1.3877 115.02 3.14059 115.02 5.38039C115.02 7.6202 116.79 9.37309 119.249 9.37309Z" fill="#4EB1A2"/>
<path d="M123.417 0.00476904C121.936 0.0213418 120.66 1.1953 119.46 2.11593C118.368 1.27107 117.055 0.0221253 115.502 0.00476904C114.684 -0.00451638 113.92 -0.0692004 113.92 0.781532V8.64276C113.92 9.54258 114.774 9.41854 115.645 9.41854C116.848 9.41854 118.035 9.89958 118.906 10.7374C119.017 10.877 119.254 10.9701 119.46 10.9701C119.571 10.9701 119.665 10.9546 119.76 10.9081H119.776C119.856 10.8614 119.951 10.815 120.014 10.7374C120.884 9.89958 122.072 9.41854 123.275 9.41854C124.145 9.41854 125 9.54258 125 8.64276V0.781532C125 -0.0692004 124.236 -0.00451638 123.417 0.00476904Z" fill="#4EB1A2"/>
<path d="M123.418 0.00495338V7.86817C123.37 7.86778 123.323 7.86715 123.275 7.86715C121.906 7.86715 120.551 8.3306 119.46 9.1565C118.37 8.3306 117.015 7.86715 115.645 7.86715C115.598 7.86715 115.55 7.86778 115.503 7.86817V0.00495338C115.55 0.00534517 115.598 0.00593232 115.645 0.00593232C116.263 0.00593232 116.88 0.114615 117.466 0.300715C118.194 0.517885 118.859 0.874844 119.46 1.34033C120.552 0.502526 121.898 0.00593232 123.275 0.00593232C123.323 0.00593232 123.37 0.00534517 123.418 0.00495338Z" fill="#FFE9CB"/>
<path d="M123.275 7.86715C123.323 7.86715 123.37 7.86778 123.418 7.86817V0.00495338C123.37 0.00554107 123.323 0.00593232 123.275 0.00593232C121.898 0.00593232 120.553 0.502526 119.46 1.34033V9.1565C120.551 8.3306 121.906 7.86715 123.275 7.86715Z" fill="#FFD396"/>
<path d="M68.9115 4.17862C68.7307 4.61067 68.6377 5.07374 68.6377 5.54139H69.721C69.721 5.2146 69.786 4.89101 69.9123 4.58909C70.0386 4.28718 70.2238 4.01285 70.4571 3.78177C70.6905 3.55069 70.9676 3.36739 71.2725 3.24234C71.5774 3.11728 71.9042 3.05291 72.2343 3.05291C72.5643 3.05291 72.8911 3.11728 73.196 3.24234C73.501 3.36739 73.778 3.55069 74.0114 3.78177C74.2448 4.01285 74.4299 4.28718 74.5562 4.58909C74.6825 4.89101 74.7475 5.2146 74.7475 5.54139L75.8308 5.54139C75.8308 5.07374 75.7378 4.61067 75.557 4.17862C75.3763 3.74657 75.1114 3.35399 74.7774 3.02331C74.4434 2.69264 74.047 2.43033 73.6106 2.25136C73.1743 2.0724 72.7066 1.98029 72.2343 1.98029C71.762 1.98029 71.2943 2.0724 70.8579 2.25136C70.4216 2.43033 70.0251 2.69264 69.6911 3.02331C69.3572 3.35399 69.0922 3.74657 68.9115 4.17862Z" fill="#4EB1A2"/>
<ellipse rx="3.59655" ry="3.5611" transform="matrix(-1 0 0 1 53.1682 5.58199)" fill="#4EB1A2"/>
</svg>
