<svg width="75" height="75" viewBox="0 0 75 75" fill="none" xmlns="http://www.w3.org/2000/svg">
<path d="M64.2857 0.0326048C54.2633 0.145908 45.6222 8.17199 37.5 14.4661C30.1101 8.69002 21.2234 0.151266 10.7143 0.0326048C5.17152 -0.0308774 0 -0.473107 0 5.34315V59.0885C0 65.2403 5.78544 64.3923 11.6783 64.3923C19.8214 64.3923 27.8571 67.681 33.75 73.4089C34.5005 74.3633 36.1077 75 37.5 75C38.2505 75 38.8923 74.8937 39.5354 74.576H39.6429C40.1786 74.257 40.8217 73.9393 41.25 73.4089C47.1429 67.681 55.1786 64.3923 63.3217 64.3923C69.2145 64.3923 75 65.2403 75 59.0885V5.34315C75 -0.473107 69.8285 -0.0308774 64.2857 0.0326048Z" fill="#4EB1A2"/>
<path d="M64.2892 0.0340576V53.793C63.9683 53.7904 63.6461 53.7861 63.3252 53.7861C54.0576 53.7861 44.8864 56.9545 37.5035 62.601C30.1208 56.9545 20.9493 53.7861 11.6817 53.7861C11.3608 53.7861 11.0386 53.7904 10.7177 53.793V0.0340576C11.0386 0.0367362 11.3608 0.0407504 11.6817 0.0407504C15.86 0.0407504 20.0397 0.78379 24.0032 2.05611C28.932 3.54085 33.4326 5.98129 37.5035 9.16371C44.8961 3.43584 54.0032 0.0407504 63.3252 0.0407504C63.6461 0.0407504 63.9683 0.0367362 64.2892 0.0340576Z" fill="#FFE9CB"/>
<path d="M63.3262 53.7861C63.6471 53.7861 63.9693 53.7904 64.2902 53.793V0.0340576C63.9693 0.0380755 63.6484 0.0407504 63.3262 0.0407504C54.0042 0.0407504 44.8971 3.43584 37.5045 9.16371V62.601C44.8874 56.9545 54.0586 53.7861 63.3262 53.7861Z" fill="#FFD396"/>
</svg>
